<svg width="62.313049" height="62.718750" viewBox="0 0 62.313 62.7188" fill="none" xmlns="http://www.w3.org/2000/svg" xmlns:xlink="http://www.w3.org/1999/xlink">
	<desc>
			Created with Pixso.
	</desc>
	<defs/>
	<path id="Vector" d="M31.22 62.71L31.08 62.71C13.94 62.71 0 48.68 0 31.42L0 31.29C0 14.03 13.94 0 31.08 0L31.22 0C48.36 0 62.31 14.03 62.31 31.29L62.31 31.42C62.31 48.68 48.36 62.71 31.22 62.71ZM31.08 2.12C15.1 2.12 2.1 15.2 2.1 31.29L2.1 31.42C2.1 47.51 15.1 60.59 31.08 60.59L31.22 60.59C47.2 60.59 60.2 47.51 60.2 31.42L60.2 31.29C60.2 15.2 47.2 2.12 31.22 2.12L31.08 2.12Z" fill="#687A86" fill-opacity="1.000000" fill-rule="nonzero"/>
	<path id="Vector" d="M40.47 13.39L21.84 13.39C16.69 13.39 12.5 17.6 12.5 22.78L12.5 39.93C12.5 45.11 16.69 49.33 21.84 49.33L40.47 49.33C45.61 49.33 49.8 45.11 49.8 39.93L49.8 22.78C49.8 17.6 45.61 13.39 40.47 13.39ZM15.8 22.78C15.8 19.43 18.51 16.7 21.84 16.7L40.47 16.7C43.8 16.7 46.51 19.43 46.51 22.78L46.51 39.93C46.51 43.29 43.8 46.01 40.47 46.01L21.84 46.01C18.51 46.01 15.8 43.29 15.8 39.93L15.8 22.78Z" fill="#687A86" fill-opacity="1.000000" fill-rule="nonzero"/>
	<path id="Vector" d="M31.15 40.09C35.94 40.09 39.83 36.17 39.83 31.35C39.83 26.54 35.94 22.62 31.15 22.62C26.36 22.62 22.47 26.54 22.47 31.35C22.47 36.17 26.36 40.09 31.15 40.09ZM31.15 25.93C34.12 25.93 36.54 28.37 36.54 31.36C36.54 34.35 34.12 36.78 31.15 36.78C28.18 36.78 25.76 34.35 25.76 31.36C25.76 28.37 28.18 25.93 31.15 25.93Z" fill="#687A86" fill-opacity="1.000000" fill-rule="nonzero"/>
	<path id="Vector" d="M40.64 24.03C41.93 24.03 42.98 22.97 42.98 21.67C42.98 20.37 41.93 19.32 40.64 19.32C39.35 19.32 38.3 20.37 38.3 21.67C38.3 22.97 39.35 24.03 40.64 24.03Z" fill="#687A86" fill-opacity="1.000000" fill-rule="nonzero"/>
</svg>
