<svg width="62.313049" height="62.718750" viewBox="0 0 62.313 62.7188" fill="none" xmlns="http://www.w3.org/2000/svg" xmlns:xlink="http://www.w3.org/1999/xlink">
	<desc>
			Created with Pixso.
	</desc>
	<defs/>
	<path id="Vector" d="M31.22 62.71L31.08 62.71C13.94 62.71 0 48.68 0 31.42L0 31.29C0 14.03 13.94 0 31.08 0L31.22 0C48.36 0 62.31 14.03 62.31 31.29L62.31 31.42C62.31 48.68 48.36 62.71 31.22 62.71ZM31.08 2.12C15.1 2.12 2.1 15.2 2.1 31.29L2.1 31.42C2.1 47.51 15.1 60.59 31.08 60.59L31.22 60.59C47.2 60.59 60.2 47.51 60.2 31.42L60.2 31.29C60.2 15.2 47.2 2.12 31.22 2.12L31.08 2.12Z" fill="#687A86" fill-opacity="1.000000" fill-rule="nonzero"/>
	<path id="Vector" d="M12.45 30.32C12.54 30.28 12.62 30.24 12.7 30.2C14.13 29.53 15.58 28.91 17.03 28.28C17.11 28.28 17.24 28.19 17.31 28.16C17.42 28.11 17.54 28.07 17.65 28.02C17.86 27.92 18.08 27.83 18.29 27.74C18.72 27.56 19.15 27.37 19.58 27.19C20.44 26.82 21.3 26.45 22.15 26.08C23.87 25.34 25.59 24.6 27.31 23.86C29.02 23.12 30.74 22.38 32.46 21.64C34.18 20.9 35.9 20.16 37.61 19.42C39.33 18.68 41.05 17.94 42.77 17.2C43.15 17.04 43.56 16.79 43.97 16.72C44.31 16.66 44.65 16.54 45 16.47C45.65 16.35 46.37 16.29 47 16.57C47.22 16.66 47.42 16.8 47.59 16.97C48.39 17.76 48.27 19.06 48.1 20.18C46.93 27.96 45.75 35.75 44.58 43.53C44.42 44.6 44.2 45.77 43.36 46.45C42.65 47.02 41.64 47.08 40.77 46.84C39.89 46.59 39.12 46.08 38.36 45.58C35.22 43.49 32.08 41.39 28.94 39.3C28.19 38.8 27.36 38.15 27.37 37.25C27.37 36.71 27.7 36.22 28.03 35.79C30.76 32.21 34.69 29.75 37.62 26.33C38.04 25.85 38.36 24.98 37.79 24.7C37.46 24.53 37.07 24.76 36.76 24.97C32.89 27.68 29.02 30.39 25.15 33.09C23.88 33.98 22.56 34.89 21.03 35.1C19.67 35.3 18.3 34.92 16.98 34.53C15.88 34.2 14.77 33.86 13.68 33.52C13.09 33.33 12.49 33.14 12.04 32.72C11.59 32.31 11.33 31.61 11.6 31.06C11.77 30.71 12.1 30.5 12.45 30.32L12.45 30.32Z" fill="#687A86" fill-opacity="1.000000" fill-rule="nonzero"/>
</svg>
