<svg width="29.869003" height="29.869141" viewBox="0 0 29.869 29.8691" fill="none" xmlns="http://www.w3.org/2000/svg" xmlns:xlink="http://www.w3.org/1999/xlink">
	<defs/>
	<path id="Vector" d="M29.86 11.15L26.13 8.66L26.09 7.53L12.8 20.68L7.05 14.93L8.55 13.43L12.8 17.68L25.99 4.64L25.97 4.19L21.5 3.9L19.12 0.1L15.11 2.09L11.15 0L8.66 3.72L4.19 3.89L3.9 8.36L0.1 10.74L2.09 14.75L0 18.71L3.72 21.2L3.89 25.67L8.36 25.96L10.74 29.76L14.75 27.77L18.71 29.86L21.2 26.13L25.67 25.97L25.96 21.5L29.76 19.12L27.77 15.11L29.86 11.15Z" fill="#CFA2C2" fill-opacity="1.000000" fill-rule="nonzero"/>
</svg>
