<svg width="63" height="63" viewBox="0 0 63 63" fill="none" xmlns="http://www.w3.org/2000/svg">
<path fill-rule="evenodd" clip-rule="evenodd" d="M20.44 13.4004L23.08 21.3204V26.6004H24.84V21.3204L27.48 13.4004H25.72L23.96 18.6804L22.2 13.4004H20.44ZM30.12 16.9204C29.1816 16.9204 28.721 17.0682 28.1469 17.5391C27.5969 18.0032 27.4457 18.3607 27.48 19.5604V23.9604C27.48 24.837 27.6244 25.4145 28.1538 25.9266C28.7038 26.4388 29.2228 26.6004 30.12 26.6004C31.0585 26.6004 31.5707 26.4388 32.1 25.9266C32.65 25.4351 32.76 24.837 32.76 23.9604V19.5604C32.76 18.7835 32.6225 18.0479 32.0897 17.5563C31.5397 17.051 30.9725 16.9204 30.12 16.9204ZM34.52 16.9204V24.8404C34.52 25.6963 35.3828 26.6004 36.28 26.6004C37.1772 26.6004 37.6516 26.1501 38.04 25.7204V26.6004H39.8V16.9204H38.04V23.9604C38.0297 24.562 37.3216 24.8404 37.16 24.8404C36.9778 24.8404 36.28 24.8026 36.28 23.9604V16.9204H34.52ZM30.12 18.6804C30.3847 18.6804 31 18.677 31 19.5604V23.9604C31 24.8129 30.4053 24.8404 30.12 24.8404C29.8553 24.8404 29.24 24.8301 29.24 23.9604V19.5604C29.24 18.842 29.6216 18.6804 30.12 18.6804ZM31.4022 28.2916C26.9644 28.2813 22.53 28.2916 18.0922 28.3604C17.4941 28.3776 16.896 28.4635 16.3253 28.6491C15.8647 28.8038 15.4247 29.017 15.026 29.2954C14.555 29.6254 14.1494 30.0413 13.8332 30.5191C13.6097 30.8526 13.431 31.217 13.2969 31.5951C13.0769 32.2035 12.9772 32.8463 12.96 33.4891C12.9153 36.3766 12.9153 39.2641 12.96 42.1516C12.9772 42.7016 13.0494 43.2448 13.1938 43.7776C13.4722 44.7813 14.005 45.7198 14.7819 46.4245C15.0053 46.6273 15.246 46.8095 15.5038 46.9676C15.82 47.1635 16.1603 47.3251 16.5144 47.4454C17.0232 47.6173 17.556 47.7032 18.0922 47.7204C26.9885 47.8854 35.8916 47.8579 44.7878 47.7204C45.386 47.7032 45.9841 47.6173 46.5547 47.4316C47.0153 47.277 47.4553 47.0638 47.8541 46.7854C48.325 46.4554 48.7307 46.0395 49.0503 45.5616C49.2703 45.2282 49.4491 44.8638 49.5866 44.4857C49.8032 43.8773 49.9028 43.2345 49.92 42.5916C49.9647 39.5838 49.9338 36.5726 49.92 33.5682C49.9097 32.9185 49.8169 32.2688 49.6038 31.657C49.4766 31.2754 49.3013 30.9076 49.0813 30.5707C48.7719 30.0895 48.3697 29.6666 47.9057 29.3332C47.4932 29.0341 47.036 28.8073 46.5547 28.6491C45.96 28.4566 45.3378 28.3707 44.7122 28.3604C40.2778 28.3398 35.84 28.302 31.4022 28.2916ZM38.1225 30.0654C40.3328 30.0688 42.5432 30.086 44.75 30.1204C45.1007 30.1307 45.4513 30.172 45.7916 30.2579C46.3382 30.4023 46.8538 30.6738 47.2491 31.0795C47.3832 31.217 47.5 31.3648 47.6066 31.5263C47.7544 31.7566 47.8713 32.0076 47.9538 32.2688C48.0913 32.6745 48.1463 33.1007 48.16 33.5304C48.2047 36.5382 48.2047 39.546 48.16 42.5504C48.1463 42.9801 48.0913 43.4063 47.9538 43.812C47.8713 44.0732 47.7544 44.3241 47.6066 44.5545C47.5 44.716 47.3832 44.8638 47.2491 45.0013C46.8538 45.407 46.3382 45.6785 45.7916 45.8229C45.4513 45.9088 45.1007 45.9501 44.75 45.9604C35.8985 46.0979 27.0435 46.0154 18.1885 45.9604C17.8103 45.9535 17.4391 45.8985 17.0782 45.7782C16.8513 45.6991 16.6313 45.596 16.4285 45.4688C16.2635 45.3691 16.1053 45.2523 15.9644 45.1216C15.4213 44.6266 15.0638 43.9632 14.8782 43.262C14.7785 42.8873 14.7338 42.4988 14.72 42.1104C14.6753 39.271 14.7063 36.4282 14.72 33.5854C14.7269 33.1523 14.7819 32.7226 14.9125 32.3101C14.995 32.0454 15.1085 31.7945 15.2563 31.5607C15.3628 31.3888 15.49 31.2238 15.631 31.0795C16.04 30.6601 16.5694 30.3885 17.1332 30.2476C17.4975 30.1582 17.8722 30.1238 18.2435 30.1204C24.871 30.1204 31.4985 30.0448 38.1225 30.0654ZM18.68 31.8804V33.6404H20.44V44.2004H22.2V33.6404H23.96V31.8804H18.68ZM31.88 31.8804V44.2004H33.64V43.3204C33.9803 43.7157 34.4753 44.2107 35.4 44.2004C35.9466 44.1935 36.3694 43.7535 36.6513 43.4063C36.94 43.0591 37.16 42.6535 37.16 42.0004V36.7204C37.16 35.9607 36.9194 35.4451 36.6135 35.0566C36.3075 34.6716 35.8607 34.4654 35.29 34.4654C35.0013 34.4654 34.716 34.5479 34.4341 34.6923C34.1453 34.8332 33.8428 35.0841 33.64 35.4004V31.8804H31.88ZM24.84 34.5204V42.4404C24.84 42.9904 25.0772 43.262 25.28 43.5266C25.5069 43.8154 25.9916 44.2004 26.4178 44.2004C26.7616 44.2004 27.1328 44.2141 27.4972 44.0079C27.865 43.8257 28.0335 43.7054 28.36 43.3204V44.2004H30.12V34.5204H28.36V41.5604C28.2019 41.7666 28.195 42.4335 27.48 42.4404C26.8372 42.4473 26.6 41.7632 26.6 41.5604V34.5204H24.84ZM40.8553 34.5204C40.02 34.5204 39.2466 34.7232 38.8341 35.146C38.3219 35.672 38.0435 36.2632 38.0435 37.0607V41.2029C38.0435 42.1001 38.2875 42.7979 38.755 43.3066C39.2225 43.8154 39.8757 44.0629 40.711 44.0629C41.6253 44.0629 42.3232 43.836 42.77 43.3445C43.2444 42.877 43.32 42.162 43.32 41.2029V40.6804H41.56V41.1204C41.56 41.6498 41.5085 42.0588 41.3847 42.2032C41.2644 42.3648 41.0375 42.437 40.68 42.4404C40.3569 42.4438 40.1128 42.3545 39.9925 42.1516C39.8653 41.966 39.8 41.6532 39.8 41.1616V39.8004H43.32V37.0607C43.32 36.1807 43.1757 35.6341 42.7219 35.1666C42.2785 34.6991 41.6907 34.5204 40.8553 34.5204ZM34.52 35.8404C35.0047 35.8404 35.4 36.2804 35.4 37.1604V41.581C35.4 42.0657 35.0047 42.4404 34.52 42.4404C34.0353 42.4404 33.6469 42.2548 33.64 42.0004V36.7204C33.6469 36.277 34.0353 35.8404 34.52 35.8404ZM40.68 36.2804C41.1647 36.2804 41.56 36.6207 41.56 37.1604V38.0404H39.8V37.1604C39.8069 36.6895 40.1953 36.2804 40.68 36.2804Z" fill="#687A86"/>
<path d="M31.2251 62.7192H31.0879C13.9462 62.7192 0 48.6821 0 31.4286L0 31.2906C0 14.0371 13.9462 0 31.0879 0L31.2251 0C48.3668 0 62.313 14.0371 62.313 31.2906V31.4286C62.313 48.6821 48.3668 62.7192 31.2251 62.7192ZM31.0879 2.12298C15.1084 2.12298 2.10923 15.2069 2.10923 31.2906V31.4286C2.10923 47.5123 15.1084 60.5963 31.0879 60.5963H31.2251C47.2046 60.5963 60.2038 47.5123 60.2038 31.4286V31.2906C60.2038 15.2069 47.2046 2.12298 31.2251 2.12298H31.0879Z" fill="#687A86"/>
</svg>
